<svg width="16" height="17" viewBox="0 0 16 17" fill="none" xmlns="http://www.w3.org/2000/svg">
<path d="M5.15312 1.42497C4.9125 0.843722 4.27812 0.534347 3.67188 0.699972L0.921875 1.44997C0.378125 1.59997 0 2.09372 0 2.65622C0 10.3875 6.26875 16.6562 14 16.6562C14.5625 16.6562 15.0563 16.2781 15.2063 15.7343L15.9563 12.9843C16.1219 12.3781 15.8125 11.7437 15.2312 11.5031L12.2312 10.2531C11.7219 10.0406 11.1313 10.1875 10.7844 10.6156L9.52188 12.1562C7.32188 11.1156 5.54062 9.33435 4.5 7.13435L6.04063 5.87497C6.46875 5.52497 6.61562 4.93747 6.40312 4.4281L5.15312 1.4281V1.42497Z" fill="#6366F1"/>
</svg>
