<svg width="41" height="32" viewBox="0 0 41 32" fill="none" xmlns="http://www.w3.org/2000/svg">
<path d="M17.55 31.1523C18.3094 31.4195 19.125 30.8641 19.125 30.0625V3.52656C19.125 3.23125 19.0125 2.93594 18.7734 2.75312C17.3953 1.65625 14.2313 0.25 10.125 0.25C6.57422 0.25 3.25547 1.18516 1.27266 1.94453C0.478125 2.25391 0 3.04141 0 3.89219V29.9289C0 30.7656 0.9 31.3492 1.69453 31.0891C3.90938 30.3508 7.41797 29.5 10.125 29.5C12.5086 29.5 15.6797 30.4844 17.55 31.1523ZM22.95 31.1523C24.8203 30.4844 27.9914 29.5 30.375 29.5C33.082 29.5 36.5906 30.3508 38.8055 31.0891C39.6 31.3563 40.5 30.7656 40.5 29.9289V3.89219C40.5 3.04141 40.0219 2.25391 39.2273 1.95156C37.2445 1.18516 33.9258 0.25 30.375 0.25C26.2687 0.25 23.1047 1.65625 21.7266 2.75312C21.4945 2.93594 21.375 3.23125 21.375 3.52656V30.0625C21.375 30.8641 22.1977 31.4195 22.95 31.1523Z" fill="#4F46E5"/>
</svg>
